<svg xmlns="http://www.w3.org/2000/svg" width="800" height="800" viewBox="0 0 800 800"><path d="M288.66442,485.00019a85.00729,85.00729,0,0,1-84.82349-90.54838c2.651-41.74925,36.22456-75.89216,77.92855-79.17928a84.7787,84.7787,0,0,1,56.94872,16.02086,15.83819,15.83819,0,0,0,20.459-1.806l49.47059-49.47075a10.00425,10.00425,0,0,0-.36633-14.52486,179.45,179.45,0,0,0-129.02633-45.25192c-92.33077,4.69945-166.94709,80.36057-170.4573,172.74419a180.00438,180.00438,0,0,0,299.5227,141.48938,9.97812,9.97812,0,0,0,.33605-14.48117l-49.48655-49.48656a15.90684,15.90684,0,0,0-20.574-1.70985A84.61773,84.61773,0,0,1,288.66442,485.00019Z"/><path d="M574.3363,283.00017a116.6353,116.6353,0,0,0-82.73225,34.26836l-15.55633,15.55633-33.23311-33.234a9.99961,9.99961,0,0,0-14.14212,0l-53.0338,53.03294a10.00039,10.00039,0,0,0,0,14.14211l33.23484,33.234-33.23484,33.23483a10.0004,10.0004,0,0,0,0,14.14212l53.0338,53.03294a10.0004,10.0004,0,0,0,14.14212,0L476.04772,467.175l15.55633,15.55633A116.99979,116.99979,0,1,0,574.3363,283.00017Zm0,138.99927A21.9312,21.9312,0,0,1,558.78,415.55625h0l-15.55633-15.55633L558.78,384.44359v.00086a21.9992,21.9992,0,1,1,15.55633,37.555Z"/></svg>